/* XPM */
static char *result[] = {
/* columns rows colors chars-per-pixel */
"130 128 75 1 ",
"  c #19170E",
". c #1D1E13",
"X c #211E13",
"o c #1F2117",
"O c #232116",
"+ c #292417",
"@ c #25251A",
"# c #29261A",
"$ c #27291E",
"% c #2C2A1D",
"& c #322D1D",
"* c #3A2F1E",
"= c #35301F",
"- c #3A311E",
"; c #262A22",
": c #2D2D21",
"> c #312E21",
", c #2F3124",
"< c #2E3228",
"1 c #353324",
"2 c #3A3524",
"3 c #363826",
"4 c #3C3827",
"5 c #353628",
"6 c #393728",
"7 c #36392B",
"8 c #3C3C2C",
"9 c #373E30",
"0 c #3C3F30",
"q c #413623",
"w c #423926",
"e c #493C27",
"r c #423D2C",
"t c #493E2A",
"y c #413F30",
"u c #3E402F",
"i c #3E4132",
"p c #3E4639",
"a c #43412E",
"s c #4A422E",
"d c #52452E",
"f c #434433",
"g c #4A4633",
"h c #464837",
"j c #4B4936",
"k c #434738",
"l c #484738",
"z c #45493A",
"x c #4B4B3A",
"c c #514732",
"v c #524A35",
"b c #594C35",
"n c #524D3A",
"m c #594E38",
"M c #4E503E",
"N c #5A5137",
"B c #53523D",
"V c #5A533C",
"C c #5C583F",
"Z c #67573A",
"A c #61583F",
"S c #464D40",
"D c #4A4F40",
"F c #4D5141",
"G c #535541",
"H c #5A5641",
"J c #555945",
"K c #5A5A44",
"L c #5B5E49",
"P c #625D45",
"I c #685E46",
"U c #615F49",
"Y c #5C614C",
"T c #61624B",
"R c #6D664B",
/* pixels */
"faffikLf3132w3>@78y808460ff8650f858k95gj38418a4;1947i8f8xxf5ffgxffifzkhYa8a3821#@49i8378iufhfiuuaffiif7if338r385;:f88xzlxafrsgwggl",
"8kxkzJf=3883&X>8962y08854r08486rf74piau=321151@,fxfaiixflzkf0gnGyfizzzYaua3231OO278pff7izhffpu8afk99kfxj313322%+8kffkl0fkigrrr2tgy",
"8ikzJu2a4u8%$8k056r81686808660y7888kfg222%:=.@8kffkfyfgfkhzfxgnxu8f8hBfu3223O@573uii8iiffxuiiizaraikfBj=33:2=OOaufuu8ffy88wrr6yttr",
"x88xa83311.$ffify06588r60y89yrry043kf8445=@@1ffz9fkkzzifi3lxlxfxfxkaMa22=3,#,ukku8i78ip88iifiuaar88ikxu3122;%0ffapup0ffrg8trtrrgsx",
"488f#<,Oo1ikihz8ffy616rr0486r8r88fr8811$O#8u8u8fiiifff9xngfzzjzzlxfii355#$,ikkxf878u8i3aakuukufxf8iuiu31,O$7uipauphiiifjr2vjggtyjj",
"aklh8,59piipzfiff5566yr88r2886ygy9888;;8uiiif8fa890ziifzfffxzjxzgfukk8,188hufpkhxf7ui4afffuuziiffr8uu7<<,188u34fuuifu8fg0gggvyytvj",
"ffhfiu8kMpkzuk8fl8066686>>8r8fiyf878iii8pzphf8rkxzf0f0xkz0fnnjxzfflfifuhk7uizzzu38iiiufxjlafzfaffgffuuu8878778ua8i78kxjnfff8rrnyxj",
"lxikhhfukpipikfi0fk118ii85rffffy48889i88upillhuflzfffzDz0zxxggxklh8fMxxukkuukpkukifkhiiiiikxlfzffraf7up78iii7ps8affkuzafzf08r0rmcx",
"gxfxhzuukiupip89ikku78i8iiii88088y8f8rrag80fjfkflxxziupzxzzzk8g8kuajhxpiiuippifakzfuuppiikukflfrrfffffpphzfafgaasshpflr8zyi8ylfngg",
"vgxhzfffkkfz8fzi784hGxi4888kzi88fayf80iiif0ffajrxxffxMFFxfiku8affffhuxpfiu8ifpiiuuipMMxBfafsgfr86rlfpiikzfuuuupaaflfzzxBxfzggxfgjn",
"sxsxphufzu7ikia878if528aflauii0faaga9iiikfrrr8ifzkzffa8sfMhihkfga8aajhkk8pzizzuuzfzzh344ragsslzza8lfkpii7ipllfku17ukzw38rfxxjalfgx",
"sgff8ufaiikifpik58f3381882rkk44f88gu8kkkxifauf80k4kf8la8a8izzuifgghahpui9kkiippikkiu3124448hsaiafu8fffkkuuhfufk7,ufh7225442rjgl8gl",
"nvxfhxfkiifu3pfik8i7,4811114fiufar15kiizjgrf98xifiiik6r8uaurfglf8fnyfpzupafpzMpizkkif5:623124ukfakp7ui8ifga88pu8iiik8812a322wsBjcz",
"gjMfizafxiu8uuikikfki747>>1147if8888ik0flxgrkif50f0kxi8f8au8ffxfxfxfzhpppfMkkMpifflx981>2w42418zk88758ii8a4u88ifpiipii51342828svz0",
"jjjaxxg3uikikiu8fk90f4,>21%2r118afluikr0zzfgizzff8zxzfr:sa824488gjlffhpipuzupppzxxfipxz1>q811w828fipi8u8388apiuaufffifg51r88383a88",
"mjsjjxx8uzzkffff44ifhhl5%&&34211rffikfff80zxiizi8ffnxjgi,u3ar4822xxfakizzuuzfuupzkffzzk9111>1rtr7ikuukiu8u8ffikkkflff8ui8O14fr=542",
"rjsglxfa4ufkfgBHxjg89ffz1O+11>>22yk80yfy4yzyifxBUJgruzxfp51rr11211yfrffizDkMzpkMGYBafzhff751282244aff57u3uuui9ixBBxauikk87$$iif52w",
"w3xlfullufphBTjr08540i0f86>:qr821660yyr0fp0y6nxgyr617kMzxxu%21252w6ygfzkzzkiiGTBu3f48hs7fff1>2qr8851ff8iufuu7pGjau4=%iMxzh44%4388r",
"rr:glagfa7umaw&488@18fzlfy88>%>26r21250fffzGHy8r68:$ifkfzz82w&=4w&w1ffzxzFkhYja4433%7kzp8fffa#&q8211,78pikiuBxar884,o7hhi8ak85,78s",
"w-+guljjgLBra==51%,79fffy888662%%&X+rflf0xPg6r6y66O1fhfkzkiglra1>&1:xff9zkKga24&1817fkxukfzxfat2#>1$1u8if7sBa=8837,%1pMkxuikkffr1&",
"rrsguxjvPl8w3221#%4fkifr08086ygyfw6yyfzfnnr262002:6lfxffzkxxxjggcsalnzgxxHar81882,<uzsga9iziffgssr88afi88Mj3885282@58ihhp88hhizxaa",
"gvxjfvRv8483214o1806fyyg880irrryy66yryjVx6r&8811:6jllxhFMzpMBjxgvnsjnnnBBrr51222#,kfavvkixfiff8ags22ffufzku254651%7iffxlxkfi8izFxr",
"jggcaPNr=18261;7ifyfkzlzzff85128fr8ffxnt2221&2>1xggfffzkzxzzszfhfgsffjPVsr26886@3fzzzvjaip08frrscgarfagB8532681;%fi84283fkii79kxxf",
"gsjnBg4=2:1=%1i8k0ffi779ffgzf86yrr8ylngqw86&+@8xxffyikziuzzxf8gggmdgvHBff86f8$>agaafzbjzkirr88frrggr3avw=533%@@5iikfhukkiff7izzzfG",
"ngfgBa4211#O8fiikffzkiii79zfff082rgyggr1&r6%:yxfffzxxlDzxxkhx8gazxmgvMg4483@@7assdvlgvgauiiff8ffr22tfgde6121#:yrp81ukxzfhkxzixkzf0",
"fBFgf23#X$6ggrzkzzfifk977fki8i0266ygy2rr>X:gxffg8fxxzBxkffxxkhxklfvxV884%O;7kanBBgBvvgffzuuiiiffrwrqryrq&%O%>yff4kpp4fkxhzizrif7iz",
"xFxf#@#58yafggxxfifk8i5<78709886r698>O;%wlxjzfff0lffxjflxfzkfkf8ffxfl&%@7fzpllmjMxvvsgfikffi888ffrrry5#+O1rgff88iu4k988fkkkfuzSzkz",
"zxzfxx88rff8ffzz0iufkkikpi878y8rfy85rgyyfgggyxgffgfzxjslfnxguiikfgzx8fxkukzzvvjafzjsjMlkiiuffai8gsrsfrr88rrrrr9aaifpkfuzxfgffzSSSS",
"lxffzzizayi78kiu9ff900yfif90f0088f8868fy8ggfla8gffhzzzBlgf000zxlggnxnfBk7pzBngBx8asnjxifiihf84i8fgfrtfr8yyyfsgaaagh3hzMkza3iixipkz",
"sfxkxxzixu9f8ipkzgfff0r89f9ffyfyii88rrryyyryaxfgafxpzxhfgcf80zxgyffxfnMfpzxxvlxzllgjua7uuuz88i8afgr8yffr2wstsslffufxp8ifzfffxMpifF",
"l1kukkikffiu88ikzkkkfg94>60yff48fiyy6688rynxgjlzzfukzxhfcrgr0xlfgxrzzlhxkkhksxfxufxzfnBuu8877i8iaaffi8yr8rrrrrghhflkixxi8rcxpfxpkx",
"azfzkkizxff7pu8kpkfxjfggy00r88i047ify6ffyyggfaaffahxGsgucgyylzgflyzkllafxfizvlfxzxkzJxsuxxi78if48fu8888fffgggrafikhkMBgalgarxMMxkl",
"kzik8uiifif4kpkifhh33,%1=3u26f8yf9izy58ffkggfylnfflf8rw12tglyflfuizhaxfugkkkgfhzMkzx8848r8fjff8i8288f87i09fffgyyyyfzl4448fsgBDzzzg",
"skufukuiuizz8ikuhiiu3=233348f0yfy0izffifkyfgngrrlzff1221ew8tgxyfkzzufa3u3Mfzgfkzzzkh07;124r828fk08fipf8iff999ryyr0zy974rerg2rxzflf",
"xzkfkkxfui8xuuiuuupk3,33833=1fff89ipfyyff06rgf8ygglgy12qtt16r2lyxxiuffaffMazjaifzMifp52431121288898iipf8iik9fffy8flf8i56rtq2&28jtl",
"fzuzzkkfxpzhzukiiuaau33u3==1>148660fflr6ffrgglyfflf6y6>2twrrqywtnxuffgxxkhggBMzzpzzzff5%%2854f7389ii8ukkzf8ffflyfff0fifrqww2r2r2jm",
"lgfxxfzfaihhzifuiihpupu,1=111111808zzyyy0yygyyy0ylly0tcrwrqyr222rn88xajxihgjgffzuiii0rf81544562439zkiif8kffukff080rfxxrgw2err405rr",
"rjxlfkzkxgjhxzikYMxpphii545411326yz0i06ryrryyg0yxHxl0yjnt*qwttyt1wjghafxixgfsaxziBMx8f8fa1>14&#234uiukkffikhg680ffGHxxfllr>1r225tw",
"swfjhpiMuiMaiMYBuuuuipzhff151==36>8zfff8628ffgHGl6266yrggw1>tqetqwrxgajgffzflMLBlfu31ffzi81:%=1&1415uf7kx88xakxGGfra8inglmg8&raart",
"s2arfkppupfBxauu33,ixMpiikz7;23388:1fflgwwgnHnrr6>>>2gcfwrlr>wtqqtsrgxlfhzfuHKf528a%1fky0f88:#%%%68448iffkzxGPn2r4f21ixgkgvvw-&set",
"t2&jgifkxhYj3==uu$$upxxxikkpp1:;581,ffjg0lmnrw6684%@rajrf3a8gg=+rwt>cfxkkfBVa288581@8i9i447197:;1:&#,kff8ixlg24282815gflzkllfvr21*",
"#>2xfuihYMsauuu43oikxipxMkkMzfa8;X$4frgfgPcq>22221;fffjxxxhfxlvgy2:yjnxzkYB8328841%0f8kfkfifi9886:O$48fgixxsr21rrr%%glfgkfcxgvjner",
"mgnvfflTaawaau-=,uMxapipffMzipxzzfkffggvm1*r2222+;f88faxxxufsjfxln8gcgxxYzar48r8#@izui88888ui90416rr8uisBKa3rq262>>ffflxlflnjcgggg",
"vlvBxBP4saaw-=%3ipzpzxMxpMzikxxfrarfffnj12*6ww&$1kiufjrzxzhzfkz8gllnanPPwwrr=2%%,ifikzuffifif8088046auuvg42=2r2>$8xg0fyx0xxjjrfjmg",
"grgcvmawr3r--#3uupppzfafzphxxxxflnl8ymnr622w1>:yfkiiljfffikh2pkhfklgsxVgy2r2>>$880fzkf8uik8789099068gaff442252#O5fgr9ffyflxnnxjngs",
"jyxgHgr224&X3xMMuphhkaazzzMx8ffffgjajn26622%X6flkklfffg977ifkkkkuzsfhCs2rrg8;:1yff088ki77up80ff88yfgsgj4uu25%@8zyfgfxflzfgxfxgxjrg",
"lgrGrrrr8:%fjxffzMxpkzxfhMx4rlf0fffggw161:#>r6ylf78ifrf4pu8ukxiufagxxfs8r1:>8ffgyf9ffipfff88004899fzjgrw33,$,4ifxjfagfgggxlgxxltfa",
"fgnm*%%X2fffBBxfhxzppzMhhzx8ryfgjlfx6X>X#6ywrrffiii8i8afzz77kxx8xgzhx3#O;7xklklfl9i88574fkkf8f07fgz084&&#$7zkffzxx0xfyrrfzffynlrrn",
"kzgvxlmgszMMxxzhukhziphhzfxfrfgtcg858440f45rrf8xf46608gizp59fkpkslxaff3fkfxkhzijfylf880r000yrfhff8iiiyaaaiiiffupif88kffrkffxgjjggx",
"78njlxxnuzhuihzMMzzxzzhhxhfjfyffgy80y6yi888fgcyfff26rfy0z70izpuhxzufhzuMkiapxzuuyjgty8r08y868ffrffi80fggzFzaupzxikkzf00r89lxfxDfff",
"fxgmfDzysufkxFzDzxfxzfflxxxvfrggffrrk9518y0rrtrrf4886ryrkffki5hxgfipfzpuxpMzxhifgyrff8800y0ffir8gxf49xnxMzjjzMzMkpzFzkffkzxxx0yxzz",
"xrfxxkzyfzfklhxkpzlffhslxxllgjgxgfgfki858yrfygrgrf80ff8rhi8kxxfgxxpuuuiukpkkuafhyyygy856yy6088r8yfr60yfgzMxzhfxzzFzpfz0ffffDkkfxxz",
"8if8zzxzpMhzzxzxfffJKBBBMugxku8ffgfa8fu288888rfffki8xxxlMiif08fjfipiphkxMppzpiuugfytKvffz6ry8888yyyyyfffaMjaahgaxzhf8BngxnFf9fFzpz",
"xxx80xzkxzaMxxzkFzzzu34asMxglfu89iaa88a88688ffffgf8u2&25afffffiukk7kzzuuzz8uhpzfyggggr22r6fxgfi88ryyafrfzMjxgjxBjjffafy28ikxlfzi88",
"xxfrfzhfxapuupphxSz0848r3=3ggffgfkggff8806568trgli4k45%3488iv8ifpkixzkikizx84fffgyjlr8216268llf80ffyfu33fxggxxkMgjjl82rw1r78fxxzyl",
"xgizzzafzhMahhMpxkkf618823-wgxzr80agguua8f08ryrgsa8i8%%&28r83raxfxipxkuixkffifuayggfr>16116rr8fhfffgffuhxpfgnhxkgnnag8>2682fr8fxfj",
"zlxfkkuhizkzhikzxxD0y>1268rq2wjnfagsr8flu7k8wq2garfu8i,1&4138-2pzxffxk8kkizzxz0yfxrr0y152==5r82fDgffgfikpxpuzxzajcglff8#51:5a147x8",
"rflykasfMiuizkihDxkflf22rtrrr61slfasfffffuargcr248ff8h8&&18rw2w5fa87kufkzzzhfikf00gf0ff812828y46yfzxfyfixMhMzMkxggxffuf8#27112rrrr",
"1yzfxfhfkiikphzkGJBgz8fr1222228rfhgsaf88aassrwswrwvBfug822r2w22r3uuklhzzxMzff076flxHlzfg8&%1>2r6rrlly68fkzzpzkhafvvGBkaif1:286=381",
"258lfMfzuukpaMJYxf%5ragy81&2r6223aagvgiu8rsggggmsww4a4afr2#ww-11431kff889zik0kxGnfrwrfjxff##&&2262>8f818kkfpkkMBPVdrffxjff7%268wqr",
"2=6y8ffhpfkxCBa4r818kl8rxnr%2666115iffaffatcmVs---q>8rwrsgf1#6:8rr48kzzfh088lJn86r2>68ii8yk8$#22>>>6yy0ykkfpxLTVgrew2rxgzfki1$6rrr",
"12:f0ffikzYJsuaar4%ylfrjxxf6&$>14r15fkffsvNZvww-w-&#8rs8rta8f>%2888;k8xzxDfJxy1*2rrX5gkifrfk01&>66617l0yzkiMTGfrrtq2+hkff0y0f8%O1a",
"$O;z8ikkMYa4a2uw8#8zf8ffyyfjtr81%%#188iffVNwqq2qr&O8a8sggws8ygk1@;#.8iik9xLara2%28%6ygi8rafi0fl8$XOX>y69pMGKk84gr22&ffzliif86yr82O",
"xkfgfihLh3u333aaX2fxz7yffyfyrrytffkf838MLvwrw-&*&#6rgarasrrfagrffrr98kifJxi4332=8;8f8fzkfffffyffyyy0kpfrxLf888rrr2$flfxMp8izfrfy8>",
"zi888zTh5337571118uf8fffffffau4svxhfarxVrrwqq*&&:f8884fsaf4f28uu8i8fakzYau8rr44%O178fzf0y0fffi008880kffFBaaaaif3%%fgxggxMifzzfia8r",
"kiiffVr7158%4%1hkkkfhgfk8yfhfukfu8aggBAr*2q2*1X2gf84rrr4lx7aa8upkk9ikkBu385382$,8890y9yzz0ififf8fl8yf0GGa878w3%&4sjfllxfkuuffhfgz8",
"k88iMr=4%35#$i7afuzkk8f8588878aafffajl441qe2+&rf44218r8ssa8uauukkiikuJu13135$X8fff85kyizki49i08yfpkk8gFr88:43%>gjjyghfzzkffaffnlhf",
"f7,xaw5511o,iziuahzppiik0fzi9i88aaiks884q-&#wvrwfik74agsggf83u7kf7kxMsau321O;90fy00if99fuiff25i08ikzMxai8u3$1ffxnxglMFzMxikzupsla8",
"ikkf437,$888puuuiph8f8ffrfzkkafa8ff832,:%%2ajtsgrff588ajsafhiuupfippu=,=$@;16ry0588f80yglfy68yyi74fii051$$3uhggVnlxDzlzzafhhiiufkg",
"ff7871<8iippuhpuipifffhi8fffafjbgsff3%%7ffa8frrggzzr87aaghh7f3ui9zz8i1$38k09yfyfy57y8rf888y8r85ii9fzzz1,ihzkaxvsfcnkkzzxkzlhpkfBnM",
"fiz8kiiukzpuukuu9f83agfuuiffausfgxlfkpffi8f6rfftrffrf04ifukii34i58f77pikfff88ffr588826r44880r26fkpifpkkkpfhkkxvxvjxzfkzhMMfrffsrjg",
"xki4xkiipMM7piuufiifgffuu8flkiiiifjxkkzziulf82rvffr2u4kha8kkfhuff9iip8f8f8i8ifi8708r8888rr816yff8kzzi79ppuuuhjhjnnnnzazhpzx8xjxjsf",
"ni0488pkppzukzpifk8kxgaffihkklki8ffuuipzf8xf8art8rrggpfiff,uufffzuf3iipfzkuukau58iufaufufkfr8afhz0izMpizpzzihvjvVnfxizxzzzkizihghg",
"x00f7kufiuppuaii9ihxjlMzhfhaffi8ifupiipffffrfvvcjgjfgzh8ufxhz8hfzifukzffkzhfifkpihkkhxjjx94ff83ukkkkppphzhzxjhjvvnxxxBKJxuxhzkl8il",
"gzxxuxkfuphazhhzz8zvau8szkp8ukafzpufppiiifrrfcgtegrgaaa3ass2shflupkuuiazhffk7iafipziff4&2ffla8uiiikzxxxipzpxjsvvsdnxfr1rffaMzuzkka",
"nxyxaffuuuaizpipkfk8--sa74ihu1afufhuuiuifxftvsgdtvgrr44wr-wtahf8puuuupiupui38808ufkz88rr118fk87fffffhpzkfhixNnjNvdgxv12rfu2wMhxhal",
"MxxzkMfiiuihiihfahpk3wr2211188gr8ifkflffgvnvlsvvdsvvg2w-*2--r3azz3ffzikhzkf9zk9fpihhf2rr--2=2kxiizhafkzphnjnafsavnnfmg2ru2wsrgVlxi",
"ahgaufu7uippkzikaffgs2-8r2212rff878iaraa84ajllgbddmBvsqqe2r114ukxpziupMkhxl404f8877iff1&4rrrr48kzMhhzziiufxajfxilvvagjgtagwsr-4aMh",
"jffguau7uppzkkzfizMpkf==52221>58afp8klfrrgagsgvgddvlggs1r*23a48,fMkiizsfxfzy0fff8ipi4as2422srrr0ppppkkpknnhavhzzxjcvnvvd-sw88=4a8j",
"vgljf3kkfuizuuikizzzuas1&551&2828ff88flgglggffgsssfxnxgg181543883zzzxz7pzkfzf98fuhalzkfa252wr0467fxaxzxhBjhBvhiixigxgdvN4&ss4sw222",
"svjMMhphuiiiiipYHxuuifja41112-2348rf8ixziifrfrsVVvfaiziki1,8888aauikfuikzk0ffhsfHBBwfkhjx6&6rrr051azkkpkgxfkzxlfxKFjffasgg2-rwwww-",
"s-jjixaifffpCYhu883:uff854>>>%&282158r8fxzffjLPcr2155Mkkffp#,u832u7ikMzizxkfjKRVaua-338gsg8118552722kiiagsffhzCBjr2814lnhaarO-2r2-",
"wr4juxxauaMCh3u373$7u8af0y08#+>12>>6ffhffifhlfre884oifkzpauf31=uiu31hziff8fBIVww4=4+1rarfgyrr1>1322&7k8ruuhMGGarfyr6+hxzplsgr2&22s",
"-q#ufahhzYM443u3%@,iuuu30yy826>++&&>afaiizB4&rss5:,7zffzxhfaMai#<:3Oi8kf50Bnrtwrr2+%frrgggrrrgf2O%1%5fggaiMJf12r88>&ukkfhla3arvr1&",
"qsjapahjYg38uu3%o$pirgyfy864882rr6qrff8zBng8-wwr2:9kfffhkaxMMzfhff2u78flBVrrrgry1$>ffrrgwfjgxjf84825fgjlhMxur2*211%8fxkfi4ga2rfgss",
"svsfkfCbw83uu=3@18p8rff0868008rg6wrrrrxnf8rr8-%4:989kxzxlhaxkMjBvgafu8gBnq1-wfy8$1yrgfrrgffgf8afiilfauhxBa121*61#$8xgzfglkaijjsgav",
"ecgaxCss-u,3i5@3fxzxfrr45888fyr82ff26jVr1122q2O:hzzk8kkxukzzfaxxaajljfANq22*222:>88alyrgga8fgr8aiifxhusBswar211#%04fffkhif4ugsrnBv",
"sdsajn2aa843$$uu8fggr828yy88rfyy88r2rrrrr118>#1gfkppizzzzhffuxxxxxxajMmstwq1>&6fgy8fffrfsjngsa37zkuzxkaa2&281&$5kfzkfuif8pgggwrasa",
"xcvvVwaw8&++3afushxkfsrry68ffr68y8rrs42r1-1#%g6y08yi9xzfkzfDfjxFuxhxnxrqwq2&X8gzaraki0fnnnjasgaur0888fgf611%+%y8h838uuagkifugvsafa",
"fasvs851%#ujMafzcggafhgrr88ry828y8rf8262&#>stt8r8yr41zpfzkixxGDzxajjn6r22#+6ggrr688if8fjjffggffuffr8ry682&X>yyffkkfu8uu8u7ssfffkuu",
"aavB1%%7uugnxagjsgjg0frrfyy6rjr28y005OO:2ssvml8y8f81kfzzzk6zg0x9zllaD>%O1ggyfrx8yff9uiihgf8fMfiifr8r81OOX2fyyf4478iikuugafa2kghhpa",
"isgslfzMgpfxgasgfwgsfraayr28grr2668r855ffyqtl8fy0y8y8iiffl8f0kDxzxjayxy88rfyygyrfyyffpzfkzx8sgxk0888ry08yyffyy8yiif87iufhfgaahkuua",
"hfhvuuMfzujnsjdjfagsgtcggr82qrrr88yf008ffrycvgfr878ffk8lglyyfzfgjgxgjg8y8yrr1rfxf9yyffflfflla4ai840fy8f8yr2fa7557kfgfk7uxfaguipuup",
"ffjagdnjxujvjvjuagvfjggrsgrrtw*2r80i88yfffffssr8878f08zjggz1ffjxjggyfg0glgy88yygfffffkllffkxgaaki880ly80yfrrrrffpka8uikxaugluiiuka",
"uxfwgjjvvxxgvgapfflxvscdtsrwgs22rfi9ify8ff8ytcrr59f8fxfflvtgglgfBvzxfx0fzfg0fryyzy7fxxffafralfgu0kzxf889ffrr8fufp18iuuuhuugfui8kfg",
"flfufjggjxgdggzsfl8nsrssvsttter54f0iki8942r8rrsa08ffFglycvtrlgnfNgffy48ygf8188ryrff0xgsrgjgxxlghfikifz00868ra887i878uvufsfgffpauuu",
"u,xjsusjsfaggaakauuu2=22wwgtdttgr8ffa77fa48arrqyrfiz4152wttllygxcga4a8iugf70fffffl8gf8452ahfusfaiikifziiuiiuau88a4ui958ar2rsffikfs",
"figxflxjjfgjhMaxxxu45=-4w-qdcrryr38ri88fi8fffgrrgr8f981rwqwycmgffxxfiupuyzfz5rfglffi9484wa81ufxaflfiuiiuu73asu3uu8pfu33r2511%uffgj",
"84iufzflsfjgfzpgjzpu313212=-wtttr8raaiff0rrasgrgnagfx58seeqrwqxvcxfxkkiff08f8r49fx8iz8723r8883agfgfiuifiu<uuiuuu8i8uu3,3wr4=2r8xfa",
"suuuia4alanllzifguuuu:%=qq11wr6rr8rff8ffgarrr8jr8ffzik6r*q>t2q6svgahDMhkSkfzxlikfk9kpi8784rr4328uuahuuauiuifauikipkpzpi=-23518838l",
"fnszxxfla8fjzzpkuuu7iu1:12&&>11&1rrgf888aikfxxa8fggfzkrrqeqwwq2ttmrghuxfif8ziiizfhipMiki==38u44aafaapuauuippuuiuffu8pkfg11=,228,2a",
"3faufffulsa4fiuhBBMfki42X&222q2q&1fgafffkkhfljfrBvg8zizvt>qq>&2qr1jDxvxxzxnxfzxffzMfkxhhk1&5usw288uaupuupiuuiuf7iMGjlfffff%5235538",
"82uuzflffaaffBGlu-=3iuuatt>2q&*21&1ra858i8ufrzJJgrw1f0fdcb2&2qeerr2gxBxllnGr8rnHlf=38ifxlr413w3=8827auffiu3papzBhu8218aslu3,1837u4",
"33,piiahuafBjs254=%3uu8uyfy&%26>&821884ffaavVx2&12w&ggmgccqe*+w2qrrrxjjhlllyBGf8383,uhffllff1%=a833uphpuufpuhMnw3825$8axh8uu22%23u",
"21#iikufuaYg111661:9fi886yf86>:$&2%%ffhggjmc82221111cgccsrrgjt1>ry6>lxjxffnKar423r1;ixxzxziuif3%187%2auuiuiMx=33u=3,:izzfuiif78oo:",
"1$;ifuhxBha=1qr2%@700ik86788yy61%@%14gvgvVs222q1%#>gffccggrjfccf61>9xxfjhLVg835811$8ihikMjku8uuja%#,3uuhkxCh85134uo$ukkiakpiuiiku,",
"kiifakfHa4831&%O@50fi08kf086yy621rragggdnaw8222>@>txxxNdgnsBnvfggmlggagxTgrqrf841%8zzfzfiMxfkzxnxsahxzfhxp,u4=2r4o;puzihkzkkpfpuis",
"fh7iuxB3124361+$500yy148f068fyftr8raxBVs=222rw1O7yyzalccnnffjjxxljggjxBKr3r2281O#7k8uzzMMgfljgajjaalgffBB3u-22r-$uzzikuuizhiikkhfg",
"uhuuMj884w3-1X1860yy882578fi80y8884rsNv-8w3=1:OfyfrkflggvjxxnnxafnvsjHVg884123@3ifahzpkznBxfgxjjvMxjlfMBu338w-%%uzpkxxiufuf7uaMhf8",
"k88fB2:2&-+O%68yy90yfr08i889ifyyfrfggs44&-41.1xz0DxzhhjvjjzxvjfrfxnrfVwrr181%%kujfpzzzjjgafxjvvvjjnvgjg3uuu2=#,upzzpipihpfhzfhglff",
"iagh333a2O@8rr8fy0y885653889008yffsfs41&%$@1rzfxfkxxflBcagfnvgx0gBsjncwr55%,3ahxxkkuuMxnBgfxnnvgsggsBMaau2&#8hlzzhzzzpuizhufkafuiz",
"kisu#O#+,38af28fzxfyf8578488rr8rsu8s3#@O$7818rfgylixBgcsajgxnnfzxxgcg&&+O1ifixhapxkpikfgnvflgvdvmvvjh8%+X&ufufhuhipuuuhauuafppfixp",
"ifgMaauzk88uff7i8f89r479868ffagga48625fff8&8yygxMkfzzzvvaagfjgklvxsgggaf0fzkk88ljfhkhpxjNaaxvcvvbbvfxf8glauzMzMxMxppMzMhkxuziuah78",
"zjafuuiku8388<7880803,50088ff85rlf8r88fk88yffflxzMfazMvvgVljBgffgsgnxgsaff7ikifghuxzkxhjBvgjnvvcsbjsxfajjmfzDxfzxzzhkfzuxpMipupiSz",
"uugaufkiuuuas7i7f788714ry16yrffffrr4rfrkizfrcgglkxzfkzgjmmffsxnavcjr8ar4xfkfhiiluuuuizxxgvbjmNvdsdsgxmjnxsfFFkizxpiuuppuuihMhiuppf",
"kMvffxuiiapifafi7488115168i88aagfr884y0iixxtagrxhxxzzxgmngxjgvrgvjxg4rvgzf08zffsuhfauiihgdgxNbdbbsggjBvfMzzhzzafzupzihpikzxifhuzkz",
"kMgauzpizuup9iii98ffa5rri848afaggrfy0fzkfxxrrjvgaxzMLBNgvjxjfjngBgxngrcxikiuzzupzzu=jxBnjvgvsbvbbgjjffsaikMzpkkMzhxhpBaMMMzaMuuMzx",
"fjkhffuuuuuup8i88881>211348ggfjs4rygffzkfgfargcggsufwrrwgsBBggggnxGgnxga3fkpikpupzugausw4-ggssdNdvbgsglxMzkzziffihjhiu4u7ujxphziuf",
"fluuuaau4k8<:898888,%21%&>1sjfssgr2ryjgixgrsgfrvgvf812wwaw8aVlrrfggjfffgikiiiafauija4423as4asdsdbvvdglfkxfkiuhguaujai33uu3uuzupajj",
"svskpkaii788458k887i1%&&&%12rffrrfgffggggrrsgffgvvjar=-awsassnVjnffffgffpziiupa3uuzxpu23wssssdbbbvdgjkixxhMMauajhjaji3%481wa8uMfnj",
"gvxuk7fuh8i8558417996&+>111122rxffafy8fgr8njrffgaajvl31w2etqrrtnBjazzuzfzfiiiu7iuuuiuu:=rtweswevvvvsgfzxlgkkaggjgvjfiui1u788=48sxg",
"gguppuauhk9i8rr518ffy6>>&&&*2r4rgfr8krr210kffrafsavmvgb&1egcqqergxfkuxzfphuipi3puuuii7u=&-12edeqwssgslMxhuizfzgjgssauukk,388a2ws4a",
"gg8kpkf1ffugf88arrzif0r1#%>112214rr878ffrry8ffgfsBBvahvf&&2wwwcwa8fkzxffipiiupuiupffizas1*qrttq-wssvjzziuiuuzxjagjgBlufu8%,14244ww",
"qaiakki8hkuilkHva1::>66yy1>21122-*8f9ff4ryffgxBIVcu3ixg818&6wwtrsauxiuf8fzzsu3hzxxa27fjugg1+qwq-qqwsgaffuuuaxxgbPbsrrufMxrk%=8www4",
"83ui8i8ikhupKn21&&%%160y822%&1-&1288iaa8ry8fHTg4qr2:5ff4rli1#rsrssrfifhkuiffzMMu2=113faarga2&&qqqwwrhffhfufxxBCmws-a:3fgasgf1:8w&2",
"==#fizkiiaJM42&2w6@>8yf613f81#%-&>&1ifuuygBUl2s2&r1;ffzfry0fr>&&rsw1pf7uzkuxBu3=243 5fufgsaafa&--4817uufpkfxTj2-au-=$pfgxa8iuxw+wr",
"+#:kpkuzfYa55##%5O;48f8828ff4881#.o,uffagvBi88828&$10ff8fgfyzyx2%>%@afuufxfsu3=,58O5fshffsllllga&+#+,78uipYB--waaa2:iiusfajjvgsgr:",
"pizzzi7Lx2812&11 148y8518i9848888488ukufmr5148881%8yfxf5ly8fggsgcfikjgjuCh333u===.%3uui7uauxf8rgjsfkiuupMMa44u334::auuuffxggnjawau"
};
